{
  "accessors": [
    {
      "bufferView": 2,
      "componentType": 5126,
      "count": 2306,
      "max": [
        0.19505000114440918,
        0.2353000044822693,
        1.8059099912643433
      ],
      "min": [
        -0.19505000114440918,
        -0.19641000032424927,
        1.0223100185394287
      ],
      "type": "VEC3"
    },
    {
      "bufferView": 2,
      "byteOffset": 27672,
      "componentType": 5126,
      "count": 2306,
      "max": [
        0.999396800994873,
        0.9999993443489075,
        0.9999991059303284
      ],
      "min": [
        -0.999396800994873,
        -0.9998133778572083,
        -1.0
      ],
      "type": "VEC3"
    },
    {
      "bufferView": 3,
      "componentType": 5126,
      "count": 2306,
      "max": [
        0.9994925856590271,
        1.0,
        0.9999993443489075,
        1.0
      ],
      "min": [
        -0.9911172986030579,
        -0.9999991655349731,
        -0.9999653100967407,
        -1.0
      ],
      "type": "VEC4"
    },
    {
      "bufferView": 1,
      "componentType": 5126,
      "count": 2306,
      "max": [
        1.0,
        0.986299991607666
      ],
      "min": [
        0.0,
        0.0
      ],
      "type": "VEC2"
    },
    {
      "bufferView": 1,
      "byteOffset": 18448,
      "componentType": 5126,
      "count": 2306,
      "max": [
        1.0,
        0.986299991607666
      ],
      "min": [
        0.0,
        0.0
      ],
      "type": "VEC2"
    },
    {
      "bufferView": 1,
      "byteOffset": 36896,
      "componentType": 5126,
      "count": 2306,
      "max": [
        1.0,
        0.986299991607666
      ],
      "min": [
        0.0,
        0.0
      ],
      "type": "VEC2"
    },
    {
      "bufferView": 1,
      "byteOffset": 55344,
      "componentType": 5126,
      "count": 2306,
      "max": [
        1.0,
        0.986299991607666
      ],
      "min": [
        0.0,
        0.0
      ],
      "type": "VEC2"
    },
    {
      "bufferView": 1,
      "byteOffset": 73792,
      "componentType": 5126,
      "count": 2306,
      "max": [
        0.0,
        0.0
      ],
      "min": [
        0.0,
        0.0
      ],
      "type": "VEC2"
    },
    {
      "bufferView": 1,
      "byteOffset": 92240,
      "componentType": 5126,
      "count": 2306,
      "max": [
        1.0,
        0.986299991607666
      ],
      "min": [
        0.0,
        0.0
      ],
      "type": "VEC2"
    },
    {
      "bufferView": 0,
      "componentType": 5125,
      "count": 7260,
      "type": "SCALAR"
    },
    {
      "bufferView": 2,
      "byteOffset": 55344,
      "componentType": 5126,
      "count": 4740,
      "max": [
        0.37814998626708984,
        0.17494000494480133,
        1.8894399404525757
      ],
      "min": [
        -0.3670699894428253,
        -0.20589999854564667,
        -0.003019999945536256
      ],
      "type": "VEC3"
    },
    {
      "bufferView": 2,
      "byteOffset": 112224,
      "componentType": 5126,
      "count": 4740,
      "max": [
        0.999989926815033,
        0.9999614357948303,
        0.9998356103897095
      ],
      "min": [
        -0.9999580979347229,
        -0.9999539256095886,
        -0.9999969601631165
      ],
      "type": "VEC3"
    },
    {
      "bufferView": 3,
      "byteOffset": 36896,
      "componentType": 5126,
      "count": 4740,
      "max": [
        1.0,
        0.9999583959579468,
        0.9998417496681213,
        1.0
      ],
      "min": [
        -0.9998817443847656,
        -0.9996623396873474,
        -0.9994091391563416,
        -1.0
      ],
      "type": "VEC4"
    },
    {
      "bufferView": 1,
      "byteOffset": 110688,
      "componentType": 5126,
      "count": 4740,
      "max": [
        0.999180018901825,
        1.0027199983596802
      ],
      "min": [
        0.0010000000474974513,
        0.006949999835342169
      ],
      "type": "VEC2"
    },
    {
      "bufferView": 1,
      "byteOffset": 148608,
      "componentType": 5126,
      "count": 4740,
      "max": [
        0.999180018901825,
        1.0027199983596802
      ],
      "min": [
        0.0010000000474974513,
        0.006949999835342169
      ],
      "type": "VEC2"
    },
    {
      "bufferView": 1,
      "byteOffset": 186528,
      "componentType": 5126,
      "count": 4740,
      "max": [
        0.999180018901825,
        1.0027199983596802
      ],
      "min": [
        0.0010000000474974513,
        0.006949999835342169
      ],
      "type": "VEC2"
    },
    {
      "bufferView": 1,
      "byteOffset": 224448,
      "componentType": 5126,
      "count": 4740,
      "max": [
        0.999180018901825,
        1.0027199983596802
      ],
      "min": [
        0.0010000000474974513,
        0.006949999835342169
      ],
      "type": "VEC2"
    },
    {
      "bufferView": 1,
      "byteOffset": 262368,
      "componentType": 5126,
      "count": 4740,
      "max": [
        0.999180018901825,
        1.0027199983596802
      ],
      "min": [
        0.0010000000474974513,
        0.006949999835342169
      ],
      "type": "VEC2"
    },
    {
      "bufferView": 0,
      "byteOffset": 29040,
      "componentType": 5125,
      "count": 17946,
      "type": "SCALAR"
    },
    {
      "bufferView": 2,
      "byteOffset": 169104,
      "componentType": 5126,
      "count": 45,
      "max": [
        0.1264200061559677,
        -0.07705000042915344,
        1.799049973487854
      ],
      "min": [
        -0.08634000271558762,
        -0.22492000460624695,
        1.6061400175094604
      ],
      "type": "VEC3"
    },
    {
      "bufferView": 2,
      "byteOffset": 169644,
      "componentType": 5126,
      "count": 45,
      "max": [
        0.9992125034332275,
        -0.0043001119047403336,
        0.6051986217498779
      ],
      "min": [
        -0.9614243507385254,
        -0.9884119033813477,
        -0.6934869289398193
      ],
      "type": "VEC3"
    },
    {
      "bufferView": 1,
      "byteOffset": 300288,
      "componentType": 5126,
      "count": 45,
      "max": [
        0.0,
        0.0
      ],
      "min": [
        0.0,
        0.0
      ],
      "type": "VEC2"
    },
    {
      "bufferView": 0,
      "byteOffset": 100824,
      "componentType": 5125,
      "count": 186,
      "type": "SCALAR"
    },
    {
      "bufferView": 2,
      "byteOffset": 170184,
      "componentType": 5126,
      "count": 24,
      "max": [
        0.7237799763679504,
        0.7237799763679504,
        -0.0
      ],
      "min": [
        -0.7237799763679504,
        -0.7237799763679504,
        -0.13083000481128693
      ],
      "type": "VEC3"
    },
    {
      "bufferView": 2,
      "byteOffset": 170472,
      "componentType": 5126,
      "count": 24,
      "max": [
        1.0,
        1.0,
        1.0
      ],
      "min": [
        -1.0,
        -1.0,
        -1.0
      ],
      "type": "VEC3"
    },
    {
      "bufferView": 0,
      "byteOffset": 101568,
      "componentType": 5125,
      "count": 36,
      "type": "SCALAR"
    }
  ],
  "asset": {
    "extras": {
      "author": "Julien Hondaâ (https://sketchfab.com/julien_hondaa)",
      "license": "CC-BY-SA-4.0 (http://creativecommons.org/licenses/by-sa/4.0/)",
      "source": "https://sketchfab.com/3d-models/cooper-4420e8085e2f42c7a2e153df8a984faf",
      "title": "Cooper"
    },
    "generator": "Sketchfab-12.68.0",
    "version": "2.0"
  },
  "bufferViews": [
    {
      "buffer": 0,
      "byteLength": 101712,
      "name": "floatBufferViews",
      "target": 34963
    },
    {
      "buffer": 0,
      "byteLength": 300648,
      "byteOffset": 101712,
      "byteStride": 8,
      "name": "floatBufferViews",
      "target": 34962
    },
    {
      "buffer": 0,
      "byteLength": 170760,
      "byteOffset": 402360,
      "byteStride": 12,
      "name": "floatBufferViews",
      "target": 34962
    },
    {
      "buffer": 0,
      "byteLength": 112736,
      "byteOffset": 573120,
      "byteStride": 16,
      "name": "floatBufferViews",
      "target": 34962
    }
  ],
  "buffers": [
    {
      "byteLength": 685856,
      "uri": "scene.bin"
    }
  ],
  "extensionsRequired": [
    "KHR_materials_pbrSpecularGlossiness"
  ],
  "extensionsUsed": [
    "KHR_materials_pbrSpecularGlossiness"
  ],
  "images": [
    {
      "uri": "textures/MAT_CHAR_Cooper_Head_diffuse.jpeg"
    },
    {
      "uri": "textures/MAT_CHAR_Cooper_Head_specularGlossiness.png"
    },
    {
      "uri": "textures/MAT_CHAR_Cooper_Head_normal.jpeg"
    },
    {
      "uri": "textures/MAT_CHAR_Cooper_Body_diffuse.jpeg"
    },
    {
      "uri": "textures/MAT_CHAR_Cooper_Body_specularGlossiness.png"
    },
    {
      "uri": "textures/MAT_CHAR_Cooper_Body_normal.jpeg"
    },
    {
      "uri": "textures/Glass_diffuse.jpeg"
    }
  ],
  "materials": [
    {
      "alphaMode": "BLEND",
      "doubleSided": true,
      "extensions": {
        "KHR_materials_pbrSpecularGlossiness": {
          "diffuseFactor": [
            0.35,
            0.35,
            0.35,
            0.0
          ],
          "glossinessFactor": 0.8,
          "specularFactor": [
            0.0,
            0.0,
            0.0
          ]
        }
      },
      "name": "Root"
    },
    {
      "extensions": {
        "KHR_materials_pbrSpecularGlossiness": {
          "diffuseFactor": [
            1.0,
            1.0,
            1.0,
            1.0
          ],
          "diffuseTexture": {
            "index": 0
          },
          "glossinessFactor": 0.79,
          "specularFactor": [
            0.37,
            0.37,
            0.37
          ],
          "specularGlossinessTexture": {
            "index": 1
          }
        }
      },
      "name": "MAT_CHAR_Cooper_Head",
      "normalTexture": {
        "index": 2
      }
    },
    {
      "extensions": {
        "KHR_materials_pbrSpecularGlossiness": {
          "diffuseFactor": [
            1.0,
            1.0,
            1.0,
            1.0
          ],
          "diffuseTexture": {
            "index": 3
          },
          "glossinessFactor": 0.9531818274295691,
          "specularFactor": [
            1.0,
            1.0,
            1.0
          ],
          "specularGlossinessTexture": {
            "index": 4
          }
        }
      },
      "name": "MAT_CHAR_Cooper_Body",
      "normalTexture": {
        "index": 5
      }
    },
    {
      "alphaMode": "BLEND",
      "extensions": {
        "KHR_materials_pbrSpecularGlossiness": {
          "diffuseFactor": [
            0.0,
            0.0,
            0.0,
            0.0
          ],
          "diffuseTexture": {
            "index": 6
          },
          "glossinessFactor": 0.8407575665098248,
          "specularFactor": [
            1.0,
            1.0,
            1.0
          ]
        }
      },
      "name": "Glass"
    }
  ],
  "meshes": [
    {
      "name": "CHAR_Cooper",
      "primitives": [
        {
          "attributes": {
            "NORMAL": 1,
            "POSITION": 0,
            "TANGENT": 2,
            "TEXCOORD_0": 3,
            "TEXCOORD_1": 4,
            "TEXCOORD_2": 5,
            "TEXCOORD_3": 6,
            "TEXCOORD_4": 7,
            "TEXCOORD_5": 8
          },
          "indices": 9,
          "material": 1,
          "mode": 4
        }
      ]
    },
    {
      "name": "CHAR_Cooper",
      "primitives": [
        {
          "attributes": {
            "NORMAL": 11,
            "POSITION": 10,
            "TANGENT": 12,
            "TEXCOORD_0": 13,
            "TEXCOORD_1": 14,
            "TEXCOORD_2": 15,
            "TEXCOORD_3": 16,
            "TEXCOORD_4": 17
          },
          "indices": 18,
          "material": 2,
          "mode": 4
        }
      ]
    },
    {
      "name": "CHAR_Cooper",
      "primitives": [
        {
          "attributes": {
            "NORMAL": 20,
            "POSITION": 19,
            "TEXCOORD_0": 21
          },
          "indices": 22,
          "material": 3,
          "mode": 4
        }
      ]
    },
    {
      "name": "Ground",
      "primitives": [
        {
          "attributes": {
            "NORMAL": 24,
            "POSITION": 23
          },
          "indices": 25,
          "material": 0,
          "mode": 4
        }
      ]
    }
  ],
  "nodes": [
    {
      "children": [
        1
      ],
      "matrix": [
        1.0,
        0.0,
        0.0,
        0.0,
        0.0,
        2.220446049250313e-16,
        -1.0,
        0.0,
        0.0,
        1.0,
        2.220446049250313e-16,
        0.0,
        0.0,
        0.0,
        0.0,
        1.0
      ],
      "name": "Sketchfab_model"
    },
    {
      "children": [
        2,
        4,
        6,
        8,
        10,
        12,
        14,
        16,
        18,
        20,
        24,
        26
      ],
      "name": "Root"
    },
    {
      "children": [
        3
      ],
      "matrix": [
        0.021290000000000003,
        0.002490000000000001,
        0.01574,
        0.0,
        0.0012100000000000004,
        0.025940000000000005,
        -0.005740000000000001,
        0.0,
        -0.01589,
        0.0053100000000000005,
        0.020650000000000005,
        0.0,
        -1.53413,
        0.9238700000000001,
        3.0462599999999997,
        1.0
      ],
      "name": "Sun"
    },
    {
      "name": "Sun"
    },
    {
      "children": [
        5
      ],
      "matrix": [
        0.026590000000000006,
        -0.00023000000000000006,
        6.000000000000002e-05,
        0.0,
        -0.00021000000000000006,
        -0.019550000000000005,
        0.01803,
        0.0,
        -0.00012000000000000004,
        -0.01803,
        -0.019550000000000005,
        0.0,
        -0.027620000000000006,
        -0.9587500000000001,
        -0.77881,
        1.0
      ],
      "name": "Point.008"
    },
    {
      "name": "Point.008"
    },
    {
      "children": [
        7
      ],
      "matrix": [
        0.024160000000000004,
        -0.00022000000000000006,
        -0.011120000000000001,
        0.0,
        -0.0002400000000000001,
        -0.026590000000000006,
        -0.0,
        0.0,
        -0.011120000000000001,
        0.00010000000000000003,
        -0.024160000000000004,
        0.0,
        -0.7526200000000002,
        0.22899000000000005,
        -0.77881,
        1.0
      ],
      "name": "Point.007"
    },
    {
      "name": "Point.007"
    },
    {
      "children": [
        9
      ],
      "matrix": [
        0.026590000000000006,
        -0.0002400000000000001,
        0.0,
        0.0,
        -0.00022000000000000006,
        -0.024410000000000005,
        -0.010540000000000002,
        0.0,
        9.000000000000003e-05,
        0.010540000000000002,
        -0.024410000000000005,
        0.0,
        -0.08408000000000002,
        1.03658,
        -0.77881,
        1.0
      ],
      "name": "Point.006"
    },
    {
      "name": "Point.006"
    },
    {
      "children": [
        11
      ],
      "matrix": [
        0.026050000000000007,
        -0.00023000000000000006,
        0.005340000000000001,
        0.0,
        -0.0002400000000000001,
        -0.026590000000000006,
        -0.0,
        0.0,
        0.005340000000000001,
        -5.000000000000002e-05,
        -0.026050000000000007,
        0.0,
        0.80846,
        0.05336000000000001,
        -0.77881,
        1.0
      ],
      "name": "Point.005"
    },
    {
      "name": "Point.005"
    },
    {
      "children": [
        13
      ],
      "matrix": [
        0.026050000000000007,
        0.0,
        -0.005340000000000001,
        0.0,
        0.0,
        0.026590000000000006,
        0.0,
        0.0,
        0.005340000000000001,
        0.0,
        0.026050000000000007,
        0.0,
        0.80876,
        0.90022,
        3.3473200000000003,
        1.0
      ],
      "name": "Point.004"
    },
    {
      "name": "Point.004"
    },
    {
      "children": [
        15
      ],
      "matrix": [
        0.026590000000000006,
        0.0,
        0.0,
        0.0,
        0.0,
        0.023260000000000006,
        -0.012890000000000002,
        0.0,
        0.0,
        0.012890000000000002,
        0.023260000000000006,
        0.0,
        -0.8534700000000001,
        1.13892,
        3.3473200000000003,
        1.0
      ],
      "name": "Point.003"
    },
    {
      "name": "Point.003"
    },
    {
      "children": [
        17
      ],
      "matrix": [
        0.026590000000000006,
        0.0,
        0.0,
        0.0,
        0.0,
        0.024410000000000005,
        0.010540000000000002,
        0.0,
        0.0,
        -0.010540000000000002,
        0.024410000000000005,
        0.0,
        0.97415,
        -0.8558300000000001,
        3.3473200000000003,
        1.0
      ],
      "name": "Point.002"
    },
    {
      "name": "Point.002"
    },
    {
      "children": [
        19
      ],
      "matrix": [
        0.026340000000000006,
        0.0,
        0.0036700000000000014,
        0.0,
        0.0,
        0.026590000000000006,
        0.0,
        0.0,
        -0.0036700000000000014,
        0.0,
        0.026340000000000006,
        0.0,
        -0.7538300000000001,
        -1.2726,
        3.3473200000000003,
        1.0
      ],
      "name": "Point.001"
    },
    {
      "name": "Point.001"
    },
    {
      "children": [
        21,
        22,
        23
      ],
      "name": "CHAR_Cooper"
    },
    {
      "mesh": 0,
      "name": "CHAR_Cooper"
    },
    {
      "mesh": 1,
      "name": "CHAR_Cooper"
    },
    {
      "mesh": 2,
      "name": "CHAR_Cooper"
    },
    {
      "children": [
        25
      ],
      "matrix": [
        1.0,
        0.0,
        -0.0,
        0.0,
        0.0,
        -1.0,
        0.0,
        0.0,
        -0.0,
        -0.0,
        -1.0,
        0.0,
        2.0721399999999996,
        -1.4262,
        -4.45565,
        1.0
      ],
      "name": "Hemi_Top.001"
    },
    {
      "name": "Hemi_Top.001"
    },
    {
      "children": [
        27
      ],
      "matrix": [
        1.8967100000000001,
        0.0,
        0.0,
        0.0,
        0.0,
        1.8967100000000001,
        0.0,
        0.0,
        0.0,
        0.0,
        1.8967100000000001,
        0.0,
        0.0,
        0.0,
        0.0,
        1.0
      ],
      "name": "Ground"
    },
    {
      "mesh": 3,
      "name": "Ground"
    }
  ],
  "samplers": [
    {
      "magFilter": 9729,
      "minFilter": 9987,
      "wrapS": 10497,
      "wrapT": 10497
    }
  ],
  "scene": 0,
  "scenes": [
    {
      "name": "Sketchfab_Scene",
      "nodes": [
        0
      ]
    }
  ],
  "textures": [
    {
      "sampler": 0,
      "source": 0
    },
    {
      "sampler": 0,
      "source": 1
    },
    {
      "sampler": 0,
      "source": 2
    },
    {
      "sampler": 0,
      "source": 3
    },
    {
      "sampler": 0,
      "source": 4
    },
    {
      "sampler": 0,
      "source": 5
    },
    {
      "sampler": 0,
      "source": 6
    }
  ]
}
