<svg xmlns="http://www.w3.org/2000/svg" xmlns:xlink="http://www.w3.org/1999/xlink" style="margin:auto;background:rgba(NaN, NaN, NaN, 0);display:block;z-index:1;position:relative" width="1084" height="322" preserveAspectRatio="xMidYMid" viewBox="0 0 1084 322">
<defs>
  <pattern id="pid-0.6744777931968549" x="0" y="0" width="163.84" height="163.84" patternUnits="userSpaceOnUse">
    <g transform="scale(0.64)"><g>
  <line x1="245.63333940997433" x2="234.35216019762828" y1="56.05276952015301" y2="67.33394873249902" stroke-width="5" stroke="#01cbe1" stroke-linecap="round"></line><line x1="245.63333940997433" x2="234.35216019762828" y1="-455.947230479847" y2="-444.66605126750096" stroke-width="5" stroke="#01cbe1" stroke-linecap="round"></line><line x1="501.6333394099743" x2="490.3521601976283" y1="-455.947230479847" y2="-444.66605126750096" stroke-width="5" stroke="#01cbe1" stroke-linecap="round"></line><line x1="757.6333394099743" x2="746.3521601976283" y1="-455.947230479847" y2="-444.66605126750096" stroke-width="5" stroke="#01cbe1" stroke-linecap="round"></line><line x1="245.63333940997433" x2="234.35216019762828" y1="-199.947230479847" y2="-188.66605126750096" stroke-width="5" stroke="#01cbe1" stroke-linecap="round"></line><line x1="501.6333394099743" x2="490.3521601976283" y1="-199.947230479847" y2="-188.66605126750096" stroke-width="5" stroke="#01cbe1" stroke-linecap="round"></line><line x1="757.6333394099743" x2="746.3521601976283" y1="-199.947230479847" y2="-188.66605126750096" stroke-width="5" stroke="#01cbe1" stroke-linecap="round"></line><line x1="245.63333940997433" x2="234.35216019762828" y1="56.05276952015301" y2="67.33394873249902" stroke-width="5" stroke="#01cbe1" stroke-linecap="round"></line><line x1="501.6333394099743" x2="490.3521601976283" y1="56.05276952015301" y2="67.33394873249902" stroke-width="5" stroke="#01cbe1" stroke-linecap="round"></line><line x1="757.6333394099743" x2="746.3521601976283" y1="56.05276952015301" y2="67.33394873249902" stroke-width="5" stroke="#01cbe1" stroke-linecap="round"></line><line x1="253.5704508456579" x2="244.06598869511174" y1="-2.1095039881378277" y2="7.39495816240834" stroke-width="5" stroke="#01cbe1" stroke-linecap="round"></line><line x1="253.5704508456579" x2="244.06598869511174" y1="-514.1095039881378" y2="-504.60504183759167" stroke-width="5" stroke="#01cbe1" stroke-linecap="round"></line><line x1="509.5704508456579" x2="500.06598869511174" y1="-514.1095039881378" y2="-504.60504183759167" stroke-width="5" stroke="#01cbe1" stroke-linecap="round"></line><line x1="765.5704508456579" x2="756.0659886951117" y1="-514.1095039881378" y2="-504.60504183759167" stroke-width="5" stroke="#01cbe1" stroke-linecap="round"></line><line x1="253.5704508456579" x2="244.06598869511174" y1="-258.1095039881378" y2="-248.60504183759167" stroke-width="5" stroke="#01cbe1" stroke-linecap="round"></line><line x1="509.5704508456579" x2="500.06598869511174" y1="-258.1095039881378" y2="-248.60504183759167" stroke-width="5" stroke="#01cbe1" stroke-linecap="round"></line><line x1="765.5704508456579" x2="756.0659886951117" y1="-258.1095039881378" y2="-248.60504183759167" stroke-width="5" stroke="#01cbe1" stroke-linecap="round"></line><line x1="253.5704508456579" x2="244.06598869511174" y1="-2.1095039881378277" y2="7.39495816240834" stroke-width="5" stroke="#01cbe1" stroke-linecap="round"></line><line x1="509.5704508456579" x2="500.06598869511174" y1="-2.1095039881378277" y2="7.39495816240834" stroke-width="5" stroke="#01cbe1" stroke-linecap="round"></line><line x1="765.5704508456579" x2="756.0659886951117" y1="-2.1095039881378277" y2="7.39495816240834" stroke-width="5" stroke="#01cbe1" stroke-linecap="round"></line><line x1="253.5704508456579" x2="244.06598869511174" y1="253.89049601186218" y2="263.39495816240833" stroke-width="5" stroke="#01cbe1" stroke-linecap="round"></line><line x1="241.70185174268624" x2="217.52143696455437" y1="48.26417500654816" y2="72.44458978468003" stroke-width="5" stroke="#01cbe1" stroke-linecap="round"></line><line x1="241.70185174268624" x2="217.52143696455437" y1="-463.73582499345184" y2="-439.55541021531997" stroke-width="5" stroke="#01cbe1" stroke-linecap="round"></line><line x1="497.70185174268624" x2="473.52143696455437" y1="-463.73582499345184" y2="-439.55541021531997" stroke-width="5" stroke="#01cbe1" stroke-linecap="round"></line><line x1="753.7018517426862" x2="729.5214369645544" y1="-463.73582499345184" y2="-439.55541021531997" stroke-width="5" stroke="#01cbe1" stroke-linecap="round"></line><line x1="241.70185174268624" x2="217.52143696455437" y1="-207.73582499345184" y2="-183.55541021531997" stroke-width="5" stroke="#01cbe1" stroke-linecap="round"></line><line x1="497.70185174268624" x2="473.52143696455437" y1="-207.73582499345184" y2="-183.55541021531997" stroke-width="5" stroke="#01cbe1" stroke-linecap="round"></line><line x1="753.7018517426862" x2="729.5214369645544" y1="-207.73582499345184" y2="-183.55541021531997" stroke-width="5" stroke="#01cbe1" stroke-linecap="round"></line><line x1="241.70185174268624" x2="217.52143696455437" y1="48.26417500654816" y2="72.44458978468003" stroke-width="5" stroke="#01cbe1" stroke-linecap="round"></line><line x1="497.70185174268624" x2="473.52143696455437" y1="48.26417500654816" y2="72.44458978468003" stroke-width="5" stroke="#01cbe1" stroke-linecap="round"></line><line x1="753.7018517426862" x2="729.5214369645544" y1="48.26417500654816" y2="72.44458978468003" stroke-width="5" stroke="#01cbe1" stroke-linecap="round"></line><line x1="189.47269792366822" x2="160.38497688807044" y1="27.789679608897785" y2="56.877400644495566" stroke-width="5" stroke="#01cbe1" stroke-linecap="round"></line><line x1="189.47269792366822" x2="160.38497688807044" y1="-484.2103203911022" y2="-455.12259935550446" stroke-width="5" stroke="#01cbe1" stroke-linecap="round"></line><line x1="445.4726979236682" x2="416.38497688807047" y1="-484.2103203911022" y2="-455.12259935550446" stroke-width="5" stroke="#01cbe1" stroke-linecap="round"></line><line x1="701.4726979236682" x2="672.3849768880705" y1="-484.2103203911022" y2="-455.12259935550446" stroke-width="5" stroke="#01cbe1" stroke-linecap="round"></line><line x1="189.47269792366822" x2="160.38497688807044" y1="-228.21032039110221" y2="-199.12259935550443" stroke-width="5" stroke="#01cbe1" stroke-linecap="round"></line><line x1="445.4726979236682" x2="416.38497688807047" y1="-228.21032039110221" y2="-199.12259935550443" stroke-width="5" stroke="#01cbe1" stroke-linecap="round"></line><line x1="701.4726979236682" x2="672.3849768880705" y1="-228.21032039110221" y2="-199.12259935550443" stroke-width="5" stroke="#01cbe1" stroke-linecap="round"></line><line x1="189.47269792366822" x2="160.38497688807044" y1="27.789679608897785" y2="56.877400644495566" stroke-width="5" stroke="#01cbe1" stroke-linecap="round"></line><line x1="445.4726979236682" x2="416.38497688807047" y1="27.789679608897785" y2="56.877400644495566" stroke-width="5" stroke="#01cbe1" stroke-linecap="round"></line><line x1="701.4726979236682" x2="672.3849768880705" y1="27.789679608897785" y2="56.877400644495566" stroke-width="5" stroke="#01cbe1" stroke-linecap="round"></line><line x1="127.43712365413052" x2="115.40626154585101" y1="104.60951173042542" y2="116.64037383870493" stroke-width="5" stroke="#01cbe1" stroke-linecap="round"></line><line x1="127.43712365413052" x2="115.40626154585101" y1="-407.3904882695746" y2="-395.35962616129507" stroke-width="5" stroke="#01cbe1" stroke-linecap="round"></line><line x1="383.4371236541305" x2="371.406261545851" y1="-407.3904882695746" y2="-395.35962616129507" stroke-width="5" stroke="#01cbe1" stroke-linecap="round"></line><line x1="639.4371236541306" x2="627.4062615458511" y1="-407.3904882695746" y2="-395.35962616129507" stroke-width="5" stroke="#01cbe1" stroke-linecap="round"></line><line x1="127.43712365413052" x2="115.40626154585101" y1="-151.39048826957458" y2="-139.35962616129507" stroke-width="5" stroke="#01cbe1" stroke-linecap="round"></line><line x1="383.4371236541305" x2="371.406261545851" y1="-151.39048826957458" y2="-139.35962616129507" stroke-width="5" stroke="#01cbe1" stroke-linecap="round"></line><line x1="639.4371236541306" x2="627.4062615458511" y1="-151.39048826957458" y2="-139.35962616129507" stroke-width="5" stroke="#01cbe1" stroke-linecap="round"></line><line x1="127.43712365413052" x2="115.40626154585101" y1="104.60951173042542" y2="116.64037383870493" stroke-width="5" stroke="#01cbe1" stroke-linecap="round"></line><line x1="383.4371236541305" x2="371.406261545851" y1="104.60951173042542" y2="116.64037383870493" stroke-width="5" stroke="#01cbe1" stroke-linecap="round"></line><line x1="639.4371236541306" x2="627.4062615458511" y1="104.60951173042542" y2="116.64037383870493" stroke-width="5" stroke="#01cbe1" stroke-linecap="round"></line><line x1="137.7228295693725" x2="113.43108593411989" y1="199.6510163145387" y2="223.9427599497913" stroke-width="5" stroke="#01cbe1" stroke-linecap="round"></line><line x1="137.7228295693725" x2="113.43108593411989" y1="-312.3489836854613" y2="-288.0572400502087" stroke-width="5" stroke="#01cbe1" stroke-linecap="round"></line><line x1="393.7228295693725" x2="369.4310859341199" y1="-312.3489836854613" y2="-288.0572400502087" stroke-width="5" stroke="#01cbe1" stroke-linecap="round"></line><line x1="649.7228295693725" x2="625.4310859341199" y1="-312.3489836854613" y2="-288.0572400502087" stroke-width="5" stroke="#01cbe1" stroke-linecap="round"></line><line x1="137.7228295693725" x2="113.43108593411989" y1="-56.34898368546129" y2="-32.05724005020869" stroke-width="5" stroke="#01cbe1" stroke-linecap="round"></line><line x1="393.7228295693725" x2="369.4310859341199" y1="-56.34898368546129" y2="-32.05724005020869" stroke-width="5" stroke="#01cbe1" stroke-linecap="round"></line><line x1="649.7228295693725" x2="625.4310859341199" y1="-56.34898368546129" y2="-32.05724005020869" stroke-width="5" stroke="#01cbe1" stroke-linecap="round"></line><line x1="137.7228295693725" x2="113.43108593411989" y1="199.6510163145387" y2="223.9427599497913" stroke-width="5" stroke="#01cbe1" stroke-linecap="round"></line><line x1="393.7228295693725" x2="369.4310859341199" y1="199.6510163145387" y2="223.9427599497913" stroke-width="5" stroke="#01cbe1" stroke-linecap="round"></line><line x1="649.7228295693725" x2="625.4310859341199" y1="199.6510163145387" y2="223.9427599497913" stroke-width="5" stroke="#01cbe1" stroke-linecap="round"></line><line x1="192.80998853348257" x2="163.40663650063522" y1="77.30610873833335" y2="106.70946077118073" stroke-width="5" stroke="#01cbe1" stroke-linecap="round"></line><line x1="192.80998853348257" x2="163.40663650063522" y1="-434.69389126166664" y2="-405.2905392288193" stroke-width="5" stroke="#01cbe1" stroke-linecap="round"></line><line x1="448.80998853348257" x2="419.4066365006352" y1="-434.69389126166664" y2="-405.2905392288193" stroke-width="5" stroke="#01cbe1" stroke-linecap="round"></line><line x1="704.8099885334825" x2="675.4066365006352" y1="-434.69389126166664" y2="-405.2905392288193" stroke-width="5" stroke="#01cbe1" stroke-linecap="round"></line><line x1="192.80998853348257" x2="163.40663650063522" y1="-178.69389126166664" y2="-149.29053922881928" stroke-width="5" stroke="#01cbe1" stroke-linecap="round"></line><line x1="448.80998853348257" x2="419.4066365006352" y1="-178.69389126166664" y2="-149.29053922881928" stroke-width="5" stroke="#01cbe1" stroke-linecap="round"></line><line x1="704.8099885334825" x2="675.4066365006352" y1="-178.69389126166664" y2="-149.29053922881928" stroke-width="5" stroke="#01cbe1" stroke-linecap="round"></line><line x1="192.80998853348257" x2="163.40663650063522" y1="77.30610873833335" y2="106.70946077118073" stroke-width="5" stroke="#01cbe1" stroke-linecap="round"></line><line x1="448.80998853348257" x2="419.4066365006352" y1="77.30610873833335" y2="106.70946077118073" stroke-width="5" stroke="#01cbe1" stroke-linecap="round"></line><line x1="704.8099885334825" x2="675.4066365006352" y1="77.30610873833335" y2="106.70946077118073" stroke-width="5" stroke="#01cbe1" stroke-linecap="round"></line><line x1="195.08190211735825" x2="185.10988349934678" y1="161.5489706920498" y2="171.52098931006128" stroke-width="5" stroke="#01cbe1" stroke-linecap="round"></line><line x1="195.08190211735825" x2="185.10988349934678" y1="-350.4510293079502" y2="-340.4790106899387" stroke-width="5" stroke="#01cbe1" stroke-linecap="round"></line><line x1="451.08190211735825" x2="441.1098834993468" y1="-350.4510293079502" y2="-340.4790106899387" stroke-width="5" stroke="#01cbe1" stroke-linecap="round"></line><line x1="707.0819021173583" x2="697.1098834993468" y1="-350.4510293079502" y2="-340.4790106899387" stroke-width="5" stroke="#01cbe1" stroke-linecap="round"></line><line x1="195.08190211735825" x2="185.10988349934678" y1="-94.4510293079502" y2="-84.47901068993872" stroke-width="5" stroke="#01cbe1" stroke-linecap="round"></line><line x1="451.08190211735825" x2="441.1098834993468" y1="-94.4510293079502" y2="-84.47901068993872" stroke-width="5" stroke="#01cbe1" stroke-linecap="round"></line><line x1="707.0819021173583" x2="697.1098834993468" y1="-94.4510293079502" y2="-84.47901068993872" stroke-width="5" stroke="#01cbe1" stroke-linecap="round"></line><line x1="195.08190211735825" x2="185.10988349934678" y1="161.5489706920498" y2="171.52098931006128" stroke-width="5" stroke="#01cbe1" stroke-linecap="round"></line><line x1="451.08190211735825" x2="441.1098834993468" y1="161.5489706920498" y2="171.52098931006128" stroke-width="5" stroke="#01cbe1" stroke-linecap="round"></line><line x1="707.0819021173583" x2="697.1098834993468" y1="161.5489706920498" y2="171.52098931006128" stroke-width="5" stroke="#01cbe1" stroke-linecap="round"></line><line x1="135.5284892403595" x2="123.56402010374653" y1="197.9949532068052" y2="209.9594223434182" stroke-width="5" stroke="#01cbe1" stroke-linecap="round"></line><line x1="135.5284892403595" x2="123.56402010374653" y1="-314.00504679319477" y2="-302.04057765658183" stroke-width="5" stroke="#01cbe1" stroke-linecap="round"></line><line x1="391.5284892403595" x2="379.56402010374654" y1="-314.00504679319477" y2="-302.04057765658183" stroke-width="5" stroke="#01cbe1" stroke-linecap="round"></line><line x1="647.5284892403595" x2="635.5640201037465" y1="-314.00504679319477" y2="-302.04057765658183" stroke-width="5" stroke="#01cbe1" stroke-linecap="round"></line><line x1="135.5284892403595" x2="123.56402010374653" y1="-58.00504679319479" y2="-46.0405776565818" stroke-width="5" stroke="#01cbe1" stroke-linecap="round"></line><line x1="391.5284892403595" x2="379.56402010374654" y1="-58.00504679319479" y2="-46.0405776565818" stroke-width="5" stroke="#01cbe1" stroke-linecap="round"></line><line x1="647.5284892403595" x2="635.5640201037465" y1="-58.00504679319479" y2="-46.0405776565818" stroke-width="5" stroke="#01cbe1" stroke-linecap="round"></line><line x1="135.5284892403595" x2="123.56402010374653" y1="197.9949532068052" y2="209.9594223434182" stroke-width="5" stroke="#01cbe1" stroke-linecap="round"></line><line x1="391.5284892403595" x2="379.56402010374654" y1="197.9949532068052" y2="209.9594223434182" stroke-width="5" stroke="#01cbe1" stroke-linecap="round"></line><line x1="647.5284892403595" x2="635.5640201037465" y1="197.9949532068052" y2="209.9594223434182" stroke-width="5" stroke="#01cbe1" stroke-linecap="round"></line><line x1="188.93976039240482" x2="171.11095477893906" y1="84.17344413919415" y2="102.0022497526599" stroke-width="5" stroke="#01cbe1" stroke-linecap="round"></line><line x1="188.93976039240482" x2="171.11095477893906" y1="-427.82655586080585" y2="-409.9977502473401" stroke-width="5" stroke="#01cbe1" stroke-linecap="round"></line><line x1="444.9397603924048" x2="427.11095477893906" y1="-427.82655586080585" y2="-409.9977502473401" stroke-width="5" stroke="#01cbe1" stroke-linecap="round"></line><line x1="700.9397603924049" x2="683.110954778939" y1="-427.82655586080585" y2="-409.9977502473401" stroke-width="5" stroke="#01cbe1" stroke-linecap="round"></line><line x1="188.93976039240482" x2="171.11095477893906" y1="-171.82655586080585" y2="-153.9977502473401" stroke-width="5" stroke="#01cbe1" stroke-linecap="round"></line><line x1="444.9397603924048" x2="427.11095477893906" y1="-171.82655586080585" y2="-153.9977502473401" stroke-width="5" stroke="#01cbe1" stroke-linecap="round"></line><line x1="700.9397603924049" x2="683.110954778939" y1="-171.82655586080585" y2="-153.9977502473401" stroke-width="5" stroke="#01cbe1" stroke-linecap="round"></line><line x1="188.93976039240482" x2="171.11095477893906" y1="84.17344413919415" y2="102.0022497526599" stroke-width="5" stroke="#01cbe1" stroke-linecap="round"></line><line x1="444.9397603924048" x2="427.11095477893906" y1="84.17344413919415" y2="102.0022497526599" stroke-width="5" stroke="#01cbe1" stroke-linecap="round"></line><line x1="700.9397603924049" x2="683.110954778939" y1="84.17344413919415" y2="102.0022497526599" stroke-width="5" stroke="#01cbe1" stroke-linecap="round"></line>
  <animateTransform attributeName="transform" type="translate" values="0 0;-256 256" keyTimes="0;1" repeatCount="indefinite" dur="5s"></animateTransform>
</g><g>
  <line x1="56.97899142231071" x2="29.86492368674797" y1="105.38618847512461" y2="132.50025621068735" stroke-width="5" stroke="#38e0f5" stroke-linecap="round"></line><line x1="56.97899142231071" x2="29.86492368674797" y1="-406.61381152487536" y2="-379.4997437893127" stroke-width="5" stroke="#38e0f5" stroke-linecap="round"></line><line x1="312.97899142231074" x2="285.86492368674794" y1="-406.61381152487536" y2="-379.4997437893127" stroke-width="5" stroke="#38e0f5" stroke-linecap="round"></line><line x1="568.9789914223107" x2="541.8649236867479" y1="-406.61381152487536" y2="-379.4997437893127" stroke-width="5" stroke="#38e0f5" stroke-linecap="round"></line><line x1="56.97899142231071" x2="29.86492368674797" y1="-150.6138115248754" y2="-123.49974378931265" stroke-width="5" stroke="#38e0f5" stroke-linecap="round"></line><line x1="312.97899142231074" x2="285.86492368674794" y1="-150.6138115248754" y2="-123.49974378931265" stroke-width="5" stroke="#38e0f5" stroke-linecap="round"></line><line x1="568.9789914223107" x2="541.8649236867479" y1="-150.6138115248754" y2="-123.49974378931265" stroke-width="5" stroke="#38e0f5" stroke-linecap="round"></line><line x1="56.97899142231071" x2="29.86492368674797" y1="105.38618847512461" y2="132.50025621068735" stroke-width="5" stroke="#38e0f5" stroke-linecap="round"></line><line x1="312.97899142231074" x2="285.86492368674794" y1="105.38618847512461" y2="132.50025621068735" stroke-width="5" stroke="#38e0f5" stroke-linecap="round"></line><line x1="568.9789914223107" x2="541.8649236867479" y1="105.38618847512461" y2="132.50025621068735" stroke-width="5" stroke="#38e0f5" stroke-linecap="round"></line><line x1="11.925813455857362" x2="3.085436489538867" y1="33.203139534434484" y2="42.043516500752986" stroke-width="5" stroke="#38e0f5" stroke-linecap="round"></line><line x1="11.925813455857362" x2="3.085436489538867" y1="-478.7968604655655" y2="-469.95648349924704" stroke-width="5" stroke="#38e0f5" stroke-linecap="round"></line><line x1="267.92581345585734" x2="259.0854364895389" y1="-478.7968604655655" y2="-469.95648349924704" stroke-width="5" stroke="#38e0f5" stroke-linecap="round"></line><line x1="523.9258134558573" x2="515.0854364895389" y1="-478.7968604655655" y2="-469.95648349924704" stroke-width="5" stroke="#38e0f5" stroke-linecap="round"></line><line x1="11.925813455857362" x2="3.085436489538867" y1="-222.79686046556552" y2="-213.956483499247" stroke-width="5" stroke="#38e0f5" stroke-linecap="round"></line><line x1="267.92581345585734" x2="259.0854364895389" y1="-222.79686046556552" y2="-213.956483499247" stroke-width="5" stroke="#38e0f5" stroke-linecap="round"></line><line x1="523.9258134558573" x2="515.0854364895389" y1="-222.79686046556552" y2="-213.956483499247" stroke-width="5" stroke="#38e0f5" stroke-linecap="round"></line><line x1="11.925813455857362" x2="3.085436489538867" y1="33.203139534434484" y2="42.043516500752986" stroke-width="5" stroke="#38e0f5" stroke-linecap="round"></line><line x1="267.92581345585734" x2="259.0854364895389" y1="33.203139534434484" y2="42.043516500752986" stroke-width="5" stroke="#38e0f5" stroke-linecap="round"></line><line x1="523.9258134558573" x2="515.0854364895389" y1="33.203139534434484" y2="42.043516500752986" stroke-width="5" stroke="#38e0f5" stroke-linecap="round"></line><line x1="73.40667224525892" x2="65.51103786572541" y1="67.77743439034246" y2="75.67306876987597" stroke-width="5" stroke="#38e0f5" stroke-linecap="round"></line><line x1="73.40667224525892" x2="65.51103786572541" y1="-444.2225656096575" y2="-436.32693123012405" stroke-width="5" stroke="#38e0f5" stroke-linecap="round"></line><line x1="329.4066722452589" x2="321.5110378657254" y1="-444.2225656096575" y2="-436.32693123012405" stroke-width="5" stroke="#38e0f5" stroke-linecap="round"></line><line x1="585.406672245259" x2="577.5110378657254" y1="-444.2225656096575" y2="-436.32693123012405" stroke-width="5" stroke="#38e0f5" stroke-linecap="round"></line><line x1="73.40667224525892" x2="65.51103786572541" y1="-188.22256560965752" y2="-180.32693123012405" stroke-width="5" stroke="#38e0f5" stroke-linecap="round"></line><line x1="329.4066722452589" x2="321.5110378657254" y1="-188.22256560965752" y2="-180.32693123012405" stroke-width="5" stroke="#38e0f5" stroke-linecap="round"></line><line x1="585.406672245259" x2="577.5110378657254" y1="-188.22256560965752" y2="-180.32693123012405" stroke-width="5" stroke="#38e0f5" stroke-linecap="round"></line><line x1="73.40667224525892" x2="65.51103786572541" y1="67.77743439034246" y2="75.67306876987597" stroke-width="5" stroke="#38e0f5" stroke-linecap="round"></line><line x1="329.4066722452589" x2="321.5110378657254" y1="67.77743439034246" y2="75.67306876987597" stroke-width="5" stroke="#38e0f5" stroke-linecap="round"></line><line x1="585.406672245259" x2="577.5110378657254" y1="67.77743439034246" y2="75.67306876987597" stroke-width="5" stroke="#38e0f5" stroke-linecap="round"></line><line x1="63.283700121165104" x2="46.4348913534077" y1="19.99213852542176" y2="36.84094729317916" stroke-width="5" stroke="#38e0f5" stroke-linecap="round"></line><line x1="63.283700121165104" x2="46.4348913534077" y1="-492.00786147457825" y2="-475.15905270682083" stroke-width="5" stroke="#38e0f5" stroke-linecap="round"></line><line x1="319.2837001211651" x2="302.4348913534077" y1="-492.00786147457825" y2="-475.15905270682083" stroke-width="5" stroke="#38e0f5" stroke-linecap="round"></line><line x1="575.2837001211651" x2="558.4348913534077" y1="-492.00786147457825" y2="-475.15905270682083" stroke-width="5" stroke="#38e0f5" stroke-linecap="round"></line><line x1="63.283700121165104" x2="46.4348913534077" y1="-236.00786147457825" y2="-219.15905270682083" stroke-width="5" stroke="#38e0f5" stroke-linecap="round"></line><line x1="319.2837001211651" x2="302.4348913534077" y1="-236.00786147457825" y2="-219.15905270682083" stroke-width="5" stroke="#38e0f5" stroke-linecap="round"></line><line x1="575.2837001211651" x2="558.4348913534077" y1="-236.00786147457825" y2="-219.15905270682083" stroke-width="5" stroke="#38e0f5" stroke-linecap="round"></line><line x1="63.283700121165104" x2="46.4348913534077" y1="19.99213852542176" y2="36.84094729317916" stroke-width="5" stroke="#38e0f5" stroke-linecap="round"></line><line x1="319.2837001211651" x2="302.4348913534077" y1="19.99213852542176" y2="36.84094729317916" stroke-width="5" stroke="#38e0f5" stroke-linecap="round"></line><line x1="575.2837001211651" x2="558.4348913534077" y1="19.99213852542176" y2="36.84094729317916" stroke-width="5" stroke="#38e0f5" stroke-linecap="round"></line><line x1="102.53934679116546" x2="85.73095304760048" y1="63.584678154257205" y2="80.39307189782218" stroke-width="5" stroke="#38e0f5" stroke-linecap="round"></line><line x1="102.53934679116546" x2="85.73095304760048" y1="-448.4153218457428" y2="-431.6069281021778" stroke-width="5" stroke="#38e0f5" stroke-linecap="round"></line><line x1="358.5393467911655" x2="341.73095304760045" y1="-448.4153218457428" y2="-431.6069281021778" stroke-width="5" stroke="#38e0f5" stroke-linecap="round"></line><line x1="614.5393467911655" x2="597.7309530476005" y1="-448.4153218457428" y2="-431.6069281021778" stroke-width="5" stroke="#38e0f5" stroke-linecap="round"></line><line x1="102.53934679116546" x2="85.73095304760048" y1="-192.4153218457428" y2="-175.60692810217782" stroke-width="5" stroke="#38e0f5" stroke-linecap="round"></line><line x1="358.5393467911655" x2="341.73095304760045" y1="-192.4153218457428" y2="-175.60692810217782" stroke-width="5" stroke="#38e0f5" stroke-linecap="round"></line><line x1="614.5393467911655" x2="597.7309530476005" y1="-192.4153218457428" y2="-175.60692810217782" stroke-width="5" stroke="#38e0f5" stroke-linecap="round"></line><line x1="102.53934679116546" x2="85.73095304760048" y1="63.584678154257205" y2="80.39307189782218" stroke-width="5" stroke="#38e0f5" stroke-linecap="round"></line><line x1="358.5393467911655" x2="341.73095304760045" y1="63.584678154257205" y2="80.39307189782218" stroke-width="5" stroke="#38e0f5" stroke-linecap="round"></line><line x1="614.5393467911655" x2="597.7309530476005" y1="63.584678154257205" y2="80.39307189782218" stroke-width="5" stroke="#38e0f5" stroke-linecap="round"></line><line x1="84.23167499759091" x2="55.27602883094466" y1="63.156218640552886" y2="92.11186480719914" stroke-width="5" stroke="#38e0f5" stroke-linecap="round"></line><line x1="84.23167499759091" x2="55.27602883094466" y1="-448.8437813594471" y2="-419.88813519280086" stroke-width="5" stroke="#38e0f5" stroke-linecap="round"></line><line x1="340.2316749975909" x2="311.27602883094465" y1="-448.8437813594471" y2="-419.88813519280086" stroke-width="5" stroke="#38e0f5" stroke-linecap="round"></line><line x1="596.231674997591" x2="567.2760288309447" y1="-448.8437813594471" y2="-419.88813519280086" stroke-width="5" stroke="#38e0f5" stroke-linecap="round"></line><line x1="84.23167499759091" x2="55.27602883094466" y1="-192.84378135944712" y2="-163.88813519280086" stroke-width="5" stroke="#38e0f5" stroke-linecap="round"></line><line x1="340.2316749975909" x2="311.27602883094465" y1="-192.84378135944712" y2="-163.88813519280086" stroke-width="5" stroke="#38e0f5" stroke-linecap="round"></line><line x1="596.231674997591" x2="567.2760288309447" y1="-192.84378135944712" y2="-163.88813519280086" stroke-width="5" stroke="#38e0f5" stroke-linecap="round"></line><line x1="84.23167499759091" x2="55.27602883094466" y1="63.156218640552886" y2="92.11186480719914" stroke-width="5" stroke="#38e0f5" stroke-linecap="round"></line><line x1="340.2316749975909" x2="311.27602883094465" y1="63.156218640552886" y2="92.11186480719914" stroke-width="5" stroke="#38e0f5" stroke-linecap="round"></line><line x1="596.231674997591" x2="567.2760288309447" y1="63.156218640552886" y2="92.11186480719914" stroke-width="5" stroke="#38e0f5" stroke-linecap="round"></line><line x1="43.895551728029666" x2="17.425165372212057" y1="173.89195798322754" y2="200.36234433904514" stroke-width="5" stroke="#01cbe1" stroke-linecap="round"></line><line x1="43.895551728029666" x2="17.425165372212057" y1="-338.10804201677246" y2="-311.63765566095486" stroke-width="5" stroke="#01cbe1" stroke-linecap="round"></line><line x1="299.89555172802966" x2="273.42516537221206" y1="-338.10804201677246" y2="-311.63765566095486" stroke-width="5" stroke="#01cbe1" stroke-linecap="round"></line><line x1="555.8955517280297" x2="529.4251653722121" y1="-338.10804201677246" y2="-311.63765566095486" stroke-width="5" stroke="#01cbe1" stroke-linecap="round"></line><line x1="43.895551728029666" x2="17.425165372212057" y1="-82.10804201677246" y2="-55.63765566095486" stroke-width="5" stroke="#01cbe1" stroke-linecap="round"></line><line x1="299.89555172802966" x2="273.42516537221206" y1="-82.10804201677246" y2="-55.63765566095486" stroke-width="5" stroke="#01cbe1" stroke-linecap="round"></line><line x1="555.8955517280297" x2="529.4251653722121" y1="-82.10804201677246" y2="-55.63765566095486" stroke-width="5" stroke="#01cbe1" stroke-linecap="round"></line><line x1="43.895551728029666" x2="17.425165372212057" y1="173.89195798322754" y2="200.36234433904514" stroke-width="5" stroke="#01cbe1" stroke-linecap="round"></line><line x1="299.89555172802966" x2="273.42516537221206" y1="173.89195798322754" y2="200.36234433904514" stroke-width="5" stroke="#01cbe1" stroke-linecap="round"></line><line x1="555.8955517280297" x2="529.4251653722121" y1="173.89195798322754" y2="200.36234433904514" stroke-width="5" stroke="#01cbe1" stroke-linecap="round"></line><line x1="114.97336810451708" x2="107.17789976285047" y1="209.85698675953256" y2="217.65245510119917" stroke-width="5" stroke="#38e0f5" stroke-linecap="round"></line><line x1="114.97336810451708" x2="107.17789976285047" y1="-302.14301324046744" y2="-294.34754489880083" stroke-width="5" stroke="#38e0f5" stroke-linecap="round"></line><line x1="370.9733681045171" x2="363.1778997628505" y1="-302.14301324046744" y2="-294.34754489880083" stroke-width="5" stroke="#38e0f5" stroke-linecap="round"></line><line x1="626.973368104517" x2="619.1778997628505" y1="-302.14301324046744" y2="-294.34754489880083" stroke-width="5" stroke="#38e0f5" stroke-linecap="round"></line><line x1="114.97336810451708" x2="107.17789976285047" y1="-46.14301324046744" y2="-38.347544898800834" stroke-width="5" stroke="#38e0f5" stroke-linecap="round"></line><line x1="370.9733681045171" x2="363.1778997628505" y1="-46.14301324046744" y2="-38.347544898800834" stroke-width="5" stroke="#38e0f5" stroke-linecap="round"></line><line x1="626.973368104517" x2="619.1778997628505" y1="-46.14301324046744" y2="-38.347544898800834" stroke-width="5" stroke="#38e0f5" stroke-linecap="round"></line><line x1="114.97336810451708" x2="107.17789976285047" y1="209.85698675953256" y2="217.65245510119917" stroke-width="5" stroke="#38e0f5" stroke-linecap="round"></line><line x1="370.9733681045171" x2="363.1778997628505" y1="209.85698675953256" y2="217.65245510119917" stroke-width="5" stroke="#38e0f5" stroke-linecap="round"></line><line x1="626.973368104517" x2="619.1778997628505" y1="209.85698675953256" y2="217.65245510119917" stroke-width="5" stroke="#38e0f5" stroke-linecap="round"></line><line x1="166.90971775187316" x2="159.46863236094404" y1="211.27986748552505" y2="218.72095287645416" stroke-width="5" stroke="#38e0f5" stroke-linecap="round"></line><line x1="166.90971775187316" x2="159.46863236094404" y1="-300.7201325144749" y2="-293.27904712354587" stroke-width="5" stroke="#38e0f5" stroke-linecap="round"></line><line x1="422.90971775187313" x2="415.46863236094407" y1="-300.7201325144749" y2="-293.27904712354587" stroke-width="5" stroke="#38e0f5" stroke-linecap="round"></line><line x1="678.9097177518731" x2="671.4686323609441" y1="-300.7201325144749" y2="-293.27904712354587" stroke-width="5" stroke="#38e0f5" stroke-linecap="round"></line><line x1="166.90971775187316" x2="159.46863236094404" y1="-44.720132514474955" y2="-37.27904712354584" stroke-width="5" stroke="#38e0f5" stroke-linecap="round"></line><line x1="422.90971775187313" x2="415.46863236094407" y1="-44.720132514474955" y2="-37.27904712354584" stroke-width="5" stroke="#38e0f5" stroke-linecap="round"></line><line x1="678.9097177518731" x2="671.4686323609441" y1="-44.720132514474955" y2="-37.27904712354584" stroke-width="5" stroke="#38e0f5" stroke-linecap="round"></line><line x1="166.90971775187316" x2="159.46863236094404" y1="211.27986748552505" y2="218.72095287645416" stroke-width="5" stroke="#38e0f5" stroke-linecap="round"></line><line x1="422.90971775187313" x2="415.46863236094407" y1="211.27986748552505" y2="218.72095287645416" stroke-width="5" stroke="#38e0f5" stroke-linecap="round"></line><line x1="678.9097177518731" x2="671.4686323609441" y1="211.27986748552505" y2="218.72095287645416" stroke-width="5" stroke="#38e0f5" stroke-linecap="round"></line><line x1="59.79491796553832" x2="31.556321281414697" y1="60.498577155570004" y2="88.73717383969363" stroke-width="5" stroke="#38e0f5" stroke-linecap="round"></line><line x1="59.79491796553832" x2="31.556321281414697" y1="-451.50142284443" y2="-423.26282616030636" stroke-width="5" stroke="#38e0f5" stroke-linecap="round"></line><line x1="315.79491796553833" x2="287.5563212814147" y1="-451.50142284443" y2="-423.26282616030636" stroke-width="5" stroke="#38e0f5" stroke-linecap="round"></line><line x1="571.7949179655383" x2="543.5563212814147" y1="-451.50142284443" y2="-423.26282616030636" stroke-width="5" stroke="#38e0f5" stroke-linecap="round"></line><line x1="59.79491796553832" x2="31.556321281414697" y1="-195.50142284443" y2="-167.26282616030636" stroke-width="5" stroke="#38e0f5" stroke-linecap="round"></line><line x1="315.79491796553833" x2="287.5563212814147" y1="-195.50142284443" y2="-167.26282616030636" stroke-width="5" stroke="#38e0f5" stroke-linecap="round"></line><line x1="571.7949179655383" x2="543.5563212814147" y1="-195.50142284443" y2="-167.26282616030636" stroke-width="5" stroke="#38e0f5" stroke-linecap="round"></line><line x1="59.79491796553832" x2="31.556321281414697" y1="60.498577155570004" y2="88.73717383969363" stroke-width="5" stroke="#38e0f5" stroke-linecap="round"></line><line x1="315.79491796553833" x2="287.5563212814147" y1="60.498577155570004" y2="88.73717383969363" stroke-width="5" stroke="#38e0f5" stroke-linecap="round"></line><line x1="571.7949179655383" x2="543.5563212814147" y1="60.498577155570004" y2="88.73717383969363" stroke-width="5" stroke="#38e0f5" stroke-linecap="round"></line>
  <animateTransform attributeName="transform" type="translate" values="0 0;-256 256" keyTimes="0;1" repeatCount="indefinite" dur="2.5s"></animateTransform>
</g><g>
  <line x1="196.62296726330203" x2="172.6276690795272" y1="37.567115420239475" y2="61.562413604014296" stroke-width="5" stroke="#a9f0f9" stroke-linecap="round"></line><line x1="196.62296726330203" x2="172.6276690795272" y1="-474.4328845797605" y2="-450.4375863959857" stroke-width="5" stroke="#a9f0f9" stroke-linecap="round"></line><line x1="452.62296726330203" x2="428.6276690795272" y1="-474.4328845797605" y2="-450.4375863959857" stroke-width="5" stroke="#a9f0f9" stroke-linecap="round"></line><line x1="708.622967263302" x2="684.6276690795272" y1="-474.4328845797605" y2="-450.4375863959857" stroke-width="5" stroke="#a9f0f9" stroke-linecap="round"></line><line x1="196.62296726330203" x2="172.6276690795272" y1="-218.43288457976053" y2="-194.4375863959857" stroke-width="5" stroke="#a9f0f9" stroke-linecap="round"></line><line x1="452.62296726330203" x2="428.6276690795272" y1="-218.43288457976053" y2="-194.4375863959857" stroke-width="5" stroke="#a9f0f9" stroke-linecap="round"></line><line x1="708.622967263302" x2="684.6276690795272" y1="-218.43288457976053" y2="-194.4375863959857" stroke-width="5" stroke="#a9f0f9" stroke-linecap="round"></line><line x1="196.62296726330203" x2="172.6276690795272" y1="37.567115420239475" y2="61.562413604014296" stroke-width="5" stroke="#a9f0f9" stroke-linecap="round"></line><line x1="452.62296726330203" x2="428.6276690795272" y1="37.567115420239475" y2="61.562413604014296" stroke-width="5" stroke="#a9f0f9" stroke-linecap="round"></line><line x1="708.622967263302" x2="684.6276690795272" y1="37.567115420239475" y2="61.562413604014296" stroke-width="5" stroke="#a9f0f9" stroke-linecap="round"></line><line x1="172.22678294684877" x2="156.79798637058715" y1="44.45017698761266" y2="59.87897356387426" stroke-width="5" stroke="#a9f0f9" stroke-linecap="round"></line><line x1="172.22678294684877" x2="156.79798637058715" y1="-467.5498230123873" y2="-452.12102643612576" stroke-width="5" stroke="#a9f0f9" stroke-linecap="round"></line><line x1="428.22678294684874" x2="412.7979863705872" y1="-467.5498230123873" y2="-452.12102643612576" stroke-width="5" stroke="#a9f0f9" stroke-linecap="round"></line><line x1="684.2267829468487" x2="668.7979863705872" y1="-467.5498230123873" y2="-452.12102643612576" stroke-width="5" stroke="#a9f0f9" stroke-linecap="round"></line><line x1="172.22678294684877" x2="156.79798637058715" y1="-211.54982301238735" y2="-196.12102643612573" stroke-width="5" stroke="#a9f0f9" stroke-linecap="round"></line><line x1="428.22678294684874" x2="412.7979863705872" y1="-211.54982301238735" y2="-196.12102643612573" stroke-width="5" stroke="#a9f0f9" stroke-linecap="round"></line><line x1="684.2267829468487" x2="668.7979863705872" y1="-211.54982301238735" y2="-196.12102643612573" stroke-width="5" stroke="#a9f0f9" stroke-linecap="round"></line><line x1="172.22678294684877" x2="156.79798637058715" y1="44.45017698761266" y2="59.87897356387426" stroke-width="5" stroke="#a9f0f9" stroke-linecap="round"></line><line x1="428.22678294684874" x2="412.7979863705872" y1="44.45017698761266" y2="59.87897356387426" stroke-width="5" stroke="#a9f0f9" stroke-linecap="round"></line><line x1="684.2267829468487" x2="668.7979863705872" y1="44.45017698761266" y2="59.87897356387426" stroke-width="5" stroke="#a9f0f9" stroke-linecap="round"></line><line x1="50.30212915024201" x2="35.81375705448791" y1="94.54680259011981" y2="109.03517468587391" stroke-width="5" stroke="#a9f0f9" stroke-linecap="round"></line><line x1="50.30212915024201" x2="35.81375705448791" y1="-417.4531974098802" y2="-402.9648253141261" stroke-width="5" stroke="#a9f0f9" stroke-linecap="round"></line><line x1="306.302129150242" x2="291.8137570544879" y1="-417.4531974098802" y2="-402.9648253141261" stroke-width="5" stroke="#a9f0f9" stroke-linecap="round"></line><line x1="562.302129150242" x2="547.813757054488" y1="-417.4531974098802" y2="-402.9648253141261" stroke-width="5" stroke="#a9f0f9" stroke-linecap="round"></line><line x1="50.30212915024201" x2="35.81375705448791" y1="-161.4531974098802" y2="-146.96482531412607" stroke-width="5" stroke="#a9f0f9" stroke-linecap="round"></line><line x1="306.302129150242" x2="291.8137570544879" y1="-161.4531974098802" y2="-146.96482531412607" stroke-width="5" stroke="#a9f0f9" stroke-linecap="round"></line><line x1="562.302129150242" x2="547.813757054488" y1="-161.4531974098802" y2="-146.96482531412607" stroke-width="5" stroke="#a9f0f9" stroke-linecap="round"></line><line x1="50.30212915024201" x2="35.81375705448791" y1="94.54680259011981" y2="109.03517468587391" stroke-width="5" stroke="#a9f0f9" stroke-linecap="round"></line><line x1="306.302129150242" x2="291.8137570544879" y1="94.54680259011981" y2="109.03517468587391" stroke-width="5" stroke="#a9f0f9" stroke-linecap="round"></line><line x1="562.302129150242" x2="547.813757054488" y1="94.54680259011981" y2="109.03517468587391" stroke-width="5" stroke="#a9f0f9" stroke-linecap="round"></line><line x1="216.79772721021644" x2="190.89283815512405" y1="176.75515559203748" y2="202.66004464712987" stroke-width="5" stroke="#a9f0f9" stroke-linecap="round"></line><line x1="216.79772721021644" x2="190.89283815512405" y1="-335.24484440796255" y2="-309.3399553528701" stroke-width="5" stroke="#a9f0f9" stroke-linecap="round"></line><line x1="472.7977272102164" x2="446.8928381551241" y1="-335.24484440796255" y2="-309.3399553528701" stroke-width="5" stroke="#a9f0f9" stroke-linecap="round"></line><line x1="728.7977272102164" x2="702.8928381551241" y1="-335.24484440796255" y2="-309.3399553528701" stroke-width="5" stroke="#a9f0f9" stroke-linecap="round"></line><line x1="216.79772721021644" x2="190.89283815512405" y1="-79.24484440796252" y2="-53.339955352870135" stroke-width="5" stroke="#a9f0f9" stroke-linecap="round"></line><line x1="472.7977272102164" x2="446.8928381551241" y1="-79.24484440796252" y2="-53.339955352870135" stroke-width="5" stroke="#a9f0f9" stroke-linecap="round"></line><line x1="728.7977272102164" x2="702.8928381551241" y1="-79.24484440796252" y2="-53.339955352870135" stroke-width="5" stroke="#a9f0f9" stroke-linecap="round"></line><line x1="216.79772721021644" x2="190.89283815512405" y1="176.75515559203748" y2="202.66004464712987" stroke-width="5" stroke="#a9f0f9" stroke-linecap="round"></line><line x1="472.7977272102164" x2="446.8928381551241" y1="176.75515559203748" y2="202.66004464712987" stroke-width="5" stroke="#a9f0f9" stroke-linecap="round"></line><line x1="728.7977272102164" x2="702.8928381551241" y1="176.75515559203748" y2="202.66004464712987" stroke-width="5" stroke="#a9f0f9" stroke-linecap="round"></line><line x1="105.468774913027" x2="91.56793518980476" y1="166.30270855305963" y2="180.20354827628188" stroke-width="5" stroke="#a9f0f9" stroke-linecap="round"></line><line x1="105.468774913027" x2="91.56793518980476" y1="-345.69729144694037" y2="-331.7964517237181" stroke-width="5" stroke="#a9f0f9" stroke-linecap="round"></line><line x1="361.468774913027" x2="347.56793518980476" y1="-345.69729144694037" y2="-331.7964517237181" stroke-width="5" stroke="#a9f0f9" stroke-linecap="round"></line><line x1="617.468774913027" x2="603.5679351898048" y1="-345.69729144694037" y2="-331.7964517237181" stroke-width="5" stroke="#a9f0f9" stroke-linecap="round"></line><line x1="105.468774913027" x2="91.56793518980476" y1="-89.69729144694037" y2="-75.79645172371812" stroke-width="5" stroke="#a9f0f9" stroke-linecap="round"></line><line x1="361.468774913027" x2="347.56793518980476" y1="-89.69729144694037" y2="-75.79645172371812" stroke-width="5" stroke="#a9f0f9" stroke-linecap="round"></line><line x1="617.468774913027" x2="603.5679351898048" y1="-89.69729144694037" y2="-75.79645172371812" stroke-width="5" stroke="#a9f0f9" stroke-linecap="round"></line><line x1="105.468774913027" x2="91.56793518980476" y1="166.30270855305963" y2="180.20354827628188" stroke-width="5" stroke="#a9f0f9" stroke-linecap="round"></line><line x1="361.468774913027" x2="347.56793518980476" y1="166.30270855305963" y2="180.20354827628188" stroke-width="5" stroke="#a9f0f9" stroke-linecap="round"></line><line x1="617.468774913027" x2="603.5679351898048" y1="166.30270855305963" y2="180.20354827628188" stroke-width="5" stroke="#a9f0f9" stroke-linecap="round"></line><line x1="264.7810244027528" x2="246.22575130684962" y1="95.02027882963566" y2="113.5755519255388" stroke-width="5" stroke="#01cbe1" stroke-linecap="round"></line><line x1="264.7810244027528" x2="246.22575130684962" y1="-416.9797211703643" y2="-398.4244480744612" stroke-width="5" stroke="#01cbe1" stroke-linecap="round"></line><line x1="520.7810244027528" x2="502.2257513068496" y1="-416.9797211703643" y2="-398.4244480744612" stroke-width="5" stroke="#01cbe1" stroke-linecap="round"></line><line x1="776.7810244027528" x2="758.2257513068496" y1="-416.9797211703643" y2="-398.4244480744612" stroke-width="5" stroke="#01cbe1" stroke-linecap="round"></line><line x1="264.7810244027528" x2="246.22575130684962" y1="-160.97972117036434" y2="-142.4244480744612" stroke-width="5" stroke="#01cbe1" stroke-linecap="round"></line><line x1="520.7810244027528" x2="502.2257513068496" y1="-160.97972117036434" y2="-142.4244480744612" stroke-width="5" stroke="#01cbe1" stroke-linecap="round"></line><line x1="776.7810244027528" x2="758.2257513068496" y1="-160.97972117036434" y2="-142.4244480744612" stroke-width="5" stroke="#01cbe1" stroke-linecap="round"></line><line x1="264.7810244027528" x2="246.22575130684962" y1="95.02027882963566" y2="113.5755519255388" stroke-width="5" stroke="#01cbe1" stroke-linecap="round"></line><line x1="520.7810244027528" x2="502.2257513068496" y1="95.02027882963566" y2="113.5755519255388" stroke-width="5" stroke="#01cbe1" stroke-linecap="round"></line><line x1="776.7810244027528" x2="758.2257513068496" y1="95.02027882963566" y2="113.5755519255388" stroke-width="5" stroke="#01cbe1" stroke-linecap="round"></line><line x1="8.781024402752792" x2="-9.774248693150383" y1="95.02027882963566" y2="113.5755519255388" stroke-width="5" stroke="#01cbe1" stroke-linecap="round"></line><line x1="161.63224382620902" x2="135.54734789629717" y1="212.9063017004112" y2="238.99119763032306" stroke-width="5" stroke="#01cbe1" stroke-linecap="round"></line><line x1="161.63224382620902" x2="135.54734789629717" y1="-299.0936982995888" y2="-273.0088023696769" stroke-width="5" stroke="#01cbe1" stroke-linecap="round"></line><line x1="417.632243826209" x2="391.5473478962972" y1="-299.0936982995888" y2="-273.0088023696769" stroke-width="5" stroke="#01cbe1" stroke-linecap="round"></line><line x1="673.632243826209" x2="647.5473478962972" y1="-299.0936982995888" y2="-273.0088023696769" stroke-width="5" stroke="#01cbe1" stroke-linecap="round"></line><line x1="161.63224382620902" x2="135.54734789629717" y1="-43.093698299588794" y2="-17.008802369676943" stroke-width="5" stroke="#01cbe1" stroke-linecap="round"></line><line x1="417.632243826209" x2="391.5473478962972" y1="-43.093698299588794" y2="-17.008802369676943" stroke-width="5" stroke="#01cbe1" stroke-linecap="round"></line><line x1="673.632243826209" x2="647.5473478962972" y1="-43.093698299588794" y2="-17.008802369676943" stroke-width="5" stroke="#01cbe1" stroke-linecap="round"></line><line x1="161.63224382620902" x2="135.54734789629717" y1="212.9063017004112" y2="238.99119763032306" stroke-width="5" stroke="#01cbe1" stroke-linecap="round"></line><line x1="417.632243826209" x2="391.5473478962972" y1="212.9063017004112" y2="238.99119763032306" stroke-width="5" stroke="#01cbe1" stroke-linecap="round"></line><line x1="673.632243826209" x2="647.5473478962972" y1="212.9063017004112" y2="238.99119763032306" stroke-width="5" stroke="#01cbe1" stroke-linecap="round"></line><line x1="180.8077331100689" x2="168.19047310864875" y1="58.5207100018028" y2="71.13797000322296" stroke-width="5" stroke="#a9f0f9" stroke-linecap="round"></line><line x1="180.8077331100689" x2="168.19047310864875" y1="-453.4792899981972" y2="-440.86202999677704" stroke-width="5" stroke="#a9f0f9" stroke-linecap="round"></line><line x1="436.8077331100689" x2="424.19047310864875" y1="-453.4792899981972" y2="-440.86202999677704" stroke-width="5" stroke="#a9f0f9" stroke-linecap="round"></line><line x1="692.807733110069" x2="680.1904731086488" y1="-453.4792899981972" y2="-440.86202999677704" stroke-width="5" stroke="#a9f0f9" stroke-linecap="round"></line><line x1="180.8077331100689" x2="168.19047310864875" y1="-197.4792899981972" y2="-184.86202999677704" stroke-width="5" stroke="#a9f0f9" stroke-linecap="round"></line><line x1="436.8077331100689" x2="424.19047310864875" y1="-197.4792899981972" y2="-184.86202999677704" stroke-width="5" stroke="#a9f0f9" stroke-linecap="round"></line><line x1="692.807733110069" x2="680.1904731086488" y1="-197.4792899981972" y2="-184.86202999677704" stroke-width="5" stroke="#a9f0f9" stroke-linecap="round"></line><line x1="180.8077331100689" x2="168.19047310864875" y1="58.5207100018028" y2="71.13797000322296" stroke-width="5" stroke="#a9f0f9" stroke-linecap="round"></line><line x1="436.8077331100689" x2="424.19047310864875" y1="58.5207100018028" y2="71.13797000322296" stroke-width="5" stroke="#a9f0f9" stroke-linecap="round"></line><line x1="692.807733110069" x2="680.1904731086488" y1="58.5207100018028" y2="71.13797000322296" stroke-width="5" stroke="#a9f0f9" stroke-linecap="round"></line><line x1="50.2437961155974" x2="30.715775134613672" y1="84.56432781949351" y2="104.09234880047725" stroke-width="5" stroke="#01cbe1" stroke-linecap="round"></line><line x1="50.2437961155974" x2="30.715775134613672" y1="-427.43567218050646" y2="-407.9076511995228" stroke-width="5" stroke="#01cbe1" stroke-linecap="round"></line><line x1="306.2437961155974" x2="286.7157751346137" y1="-427.43567218050646" y2="-407.9076511995228" stroke-width="5" stroke="#01cbe1" stroke-linecap="round"></line><line x1="562.2437961155974" x2="542.7157751346136" y1="-427.43567218050646" y2="-407.9076511995228" stroke-width="5" stroke="#01cbe1" stroke-linecap="round"></line><line x1="50.2437961155974" x2="30.715775134613672" y1="-171.4356721805065" y2="-151.90765119952275" stroke-width="5" stroke="#01cbe1" stroke-linecap="round"></line><line x1="306.2437961155974" x2="286.7157751346137" y1="-171.4356721805065" y2="-151.90765119952275" stroke-width="5" stroke="#01cbe1" stroke-linecap="round"></line><line x1="562.2437961155974" x2="542.7157751346136" y1="-171.4356721805065" y2="-151.90765119952275" stroke-width="5" stroke="#01cbe1" stroke-linecap="round"></line><line x1="50.2437961155974" x2="30.715775134613672" y1="84.56432781949351" y2="104.09234880047725" stroke-width="5" stroke="#01cbe1" stroke-linecap="round"></line><line x1="306.2437961155974" x2="286.7157751346137" y1="84.56432781949351" y2="104.09234880047725" stroke-width="5" stroke="#01cbe1" stroke-linecap="round"></line><line x1="562.2437961155974" x2="542.7157751346136" y1="84.56432781949351" y2="104.09234880047725" stroke-width="5" stroke="#01cbe1" stroke-linecap="round"></line><line x1="33.267116818383734" x2="4.727249738992038" y1="200.11029010796108" y2="228.65015718735276" stroke-width="5" stroke="#a9f0f9" stroke-linecap="round"></line><line x1="33.267116818383734" x2="4.727249738992038" y1="-311.8897098920389" y2="-283.34984281264724" stroke-width="5" stroke="#a9f0f9" stroke-linecap="round"></line><line x1="289.2671168183837" x2="260.72724973899204" y1="-311.8897098920389" y2="-283.34984281264724" stroke-width="5" stroke="#a9f0f9" stroke-linecap="round"></line><line x1="545.2671168183838" x2="516.727249738992" y1="-311.8897098920389" y2="-283.34984281264724" stroke-width="5" stroke="#a9f0f9" stroke-linecap="round"></line><line x1="33.267116818383734" x2="4.727249738992038" y1="-55.88970989203892" y2="-27.34984281264724" stroke-width="5" stroke="#a9f0f9" stroke-linecap="round"></line><line x1="289.2671168183837" x2="260.72724973899204" y1="-55.88970989203892" y2="-27.34984281264724" stroke-width="5" stroke="#a9f0f9" stroke-linecap="round"></line><line x1="545.2671168183838" x2="516.727249738992" y1="-55.88970989203892" y2="-27.34984281264724" stroke-width="5" stroke="#a9f0f9" stroke-linecap="round"></line><line x1="33.267116818383734" x2="4.727249738992038" y1="200.11029010796108" y2="228.65015718735276" stroke-width="5" stroke="#a9f0f9" stroke-linecap="round"></line><line x1="289.2671168183837" x2="260.72724973899204" y1="200.11029010796108" y2="228.65015718735276" stroke-width="5" stroke="#a9f0f9" stroke-linecap="round"></line><line x1="545.2671168183838" x2="516.727249738992" y1="200.11029010796108" y2="228.65015718735276" stroke-width="5" stroke="#a9f0f9" stroke-linecap="round"></line>
  <animateTransform attributeName="transform" type="translate" values="0 0;-256 256" keyTimes="0;1" repeatCount="indefinite" dur="1.6666666666666665s"></animateTransform>
</g></g>
  </pattern>
</defs>
<rect x="0" y="0" width="1084" height="322" fill="url(#pid-0.6744777931968549)"></rect>
</svg>